{
  "accessors": [
    {
      "bufferView": 0,
      "componentType": 5125,
      "count": 1623,
      "max": [
        989
      ],
      "min": [
        0
      ],
      "name": "Face Vertex Indices Accessor",
      "type": "SCALAR"
    },
    {
      "bufferView": 1,
      "componentType": 5126,
      "count": 990,
      "max": [
        2708.661376953125,
        1814.9605712890625,
        118.11023712158203
      ],
      "min": [
        -322.83465576171875,
        0.0,
        0.0
      ],
      "name": "Face Points Accessor",
      "type": "VEC3"
    },
    {
      "bufferView": 2,
      "componentType": 5126,
      "count": 990,
      "max": [
        1.0,
        1.0,
        1.0
      ],
      "min": [
        -1.0,
        -1.0,
        0.0
      ],
      "name": "Face Normals Accessor",
      "type": "VEC3"
    },
    {
      "bufferView": 3,
      "componentType": 5126,
      "count": 990,
      "max": [
        1.0,
        1.0
      ],
      "min": [
        0.0,
        0.0
      ],
      "name": "Face UV0 Accessor",
      "type": "VEC2"
    }
  ],
  "asset": {
    "generator": "Exported from Omniverse GLTF Converter.",
    "version": "2.0"
  },
  "bufferViews": [
    {
      "buffer": 0,
      "byteLength": 6492,
      "target": 34963
    },
    {
      "buffer": 0,
      "byteLength": 11880,
      "byteOffset": 6492,
      "target": 34962
    },
    {
      "buffer": 0,
      "byteLength": 11880,
      "byteOffset": 18372,
      "target": 34962
    },
    {
      "buffer": 0,
      "byteLength": 7920,
      "byteOffset": 30252,
      "target": 34962
    }
  ],
  "buffers": [
    {
      "byteLength": 38172,
      "name": "Model Data",
      "uri": "data:application/octet-stream;base64,"
    }
  ],
  "extensions": {
    "KHR_lights_punctual": {
      "lights": [
        {
          "color": [
            1.0,
            1.0,
            1.0
          ],
          "intensity": 3.141592653589793,
          "name": "DomeLight",
          "spot": {
            "innerConeAngle": 0.0,
            "outerConeAngle": 0.7853981634
          },
          "type": "spot"
        },
        {
          "color": [
            1.0,
            1.0,
            1.0
          ],
          "intensity": 2513274.1228718343,
          "name": "DistantLight",
          "type": "directional"
        }
      ]
    }
  },
  "extensionsRequired": [
    "KHR_lights_punctual"
  ],
  "extensionsUsed": [
    "KHR_lights_punctual"
  ],
  "meshes": [
    {
      "name": "_3DGeom1",
      "primitives": [
        {
          "attributes": {
            "NORMAL": 2,
            "POSITION": 1,
            "TEXCOORD_0": 3
          },
          "indices": 0,
          "mode": 4
        }
      ]
    }
  ],
  "nodes": [
    {
      "children": [
        1,
        3
      ],
      "name": "World",
      "rotation": [
        0.7071067811865476,
        0.0,
        0.0,
        -0.7071067811865475
      ],
      "scale": [
        1.0,
        1.0,
        1.0
      ],
      "translation": [
        0.0,
        0.0,
        0.0
      ]
    },
    {
      "children": [
        2
      ],
      "name": "_Fskp",
      "rotation": [
        0.0,
        0.0,
        1.0,
        6.056436672933213e-15
      ],
      "scale": [
        100.0,
        100.0,
        100.0
      ],
      "translation": [
        0.0,
        0.0,
        0.0
      ]
    },
    {
      "mesh": 0,
      "name": "_3DGeom1",
      "rotation": [
        0.0,
        0.0,
        0.0,
        1.0
      ],
      "scale": [
        0.0254,
        0.0254,
        0.0254
      ],
      "translation": [
        0.0,
        0.0,
        0.0
      ]
    },
    {
      "children": [
        4
      ],
      "name": "OmniKit_Viewport_LightRig",
      "rotation": [
        0.5,
        0.5000000000000002,
        0.5,
        0.4999999999999997
      ],
      "scale": [
        1.0,
        1.0,
        1.0
      ],
      "translation": [
        0.0,
        0.0,
        0.0
      ]
    },
    {
      "children": [
        5,
        6
      ],
      "name": "Lights",
      "rotation": [
        -0.4999999999999999,
        -0.5000000000000001,
        -0.5000000000000001,
        0.5000000000000002
      ],
      "scale": [
        1.0,
        1.0,
        1.0
      ],
      "translation": [
        0.0,
        0.0,
        0.0
      ]
    },
    {
      "extensions": {
        "KHR_lights_punctual": {
          "light": 0
        }
      },
      "name": "DomeLight",
      "rotation": [
        0.0,
        0.0,
        0.5172803730188718,
        0.8558159940603219
      ],
      "scale": [
        1.0,
        1.0,
        1.0
      ],
      "translation": [
        0.0,
        0.0,
        305.0
      ]
    },
    {
      "extensions": {
        "KHR_lights_punctual": {
          "light": 1
        }
      },
      "name": "DistantLight",
      "rotation": [
        0.17670354420260315,
        0.426600092933318,
        0.8194911538891423,
        0.33944435018566016
      ],
      "scale": [
        1.0,
        1.0,
        1.0
      ],
      "translation": [
        0.0,
        0.0,
        305.0
      ]
    }
  ],
  "scene": 0,
  "scenes": [
    {
      "name": "DefaultScene",
      "nodes": [
        0
      ]
    }
  ]
}
