<?xml version="1.0" encoding="UTF-8"?>
<svg id="Layer_1" data-name="Layer 1" xmlns="http://www.w3.org/2000/svg" viewBox="0 0 666.69 666.69">
  <defs>
    <style>
      .cls-1 {
        fill: #000;
      }

      .cls-1, .cls-2 {
        stroke-width: 0px;
      }

      .cls-2 {
        fill: #fff;
      }
    </style>
  </defs>
  <path class="cls-1" d="M666.69,333.35c0,184.1-149.24,333.35-333.35,333.35S0,517.45,0,333.35C0,149.24,149.24,0,333.35,0s333.35,149.24,333.35,333.35h0ZM577.56,275.12c6.51-6.51,6.51-17.07,0-23.58-134.66-134.87-353.16-135.05-488.04-.38-.13.13-.26.26-.38.38-6.58,6.45-6.68,17-.24,23.58,6.45,6.58,17,6.68,23.58.24.08-.08.16-.16.24-.24,121.67-121.85,319.09-122,440.94-.33.11.11.22.22.33.33,6.51,6.51,17.07,6.51,23.58,0ZM504.38,324.8c-94.31-94.46-247.33-94.58-341.79-.27-.08.08-.15.15-.23.23-6.45,6.58-6.34,17.13.24,23.58,6.48,6.35,16.86,6.35,23.34,0,81.43-81.42,213.44-81.42,294.86,0,6.58,6.45,17.13,6.34,23.58-.24,6.35-6.48,6.35-16.86,0-23.34v.04ZM431.12,397.98c-54.01-54-141.57-54-195.58,0-6.45,6.58-6.34,17.13.24,23.58,6.48,6.35,16.86,6.35,23.34,0,40.99-41,107.45-41,148.45-.02l.02.02c6.58,6.45,17.13,6.34,23.58-.24,6.35-6.48,6.35-16.86,0-23.34h-.04ZM380.93,497.47c0-26.11-21.17-47.28-47.28-47.28s-47.28,21.17-47.28,47.28c0,26.11,21.17,47.28,47.28,47.28s47.28-21.17,47.28-47.28v-.04.04Z"/>
  <path class="cls-2" d="M577.56,275.12c6.51-6.51,6.51-17.07,0-23.58-134.66-134.87-353.16-135.05-488.04-.38-.13.13-.26.26-.38.38-6.58,6.45-6.68,17-.24,23.58,6.45,6.58,17,6.68,23.58.24.08-.08.16-.16.24-.24,121.67-121.85,319.09-122,440.94-.33.11.11.22.22.33.33,6.51,6.51,17.07,6.51,23.58,0Z"/>
  <path class="cls-2" d="M504.38,324.8c-94.31-94.46-247.33-94.58-341.79-.27-.08.08-.15.15-.23.23-6.45,6.58-6.34,17.13.24,23.58,6.48,6.35,16.86,6.35,23.34,0,81.43-81.42,213.44-81.42,294.86,0,6.58,6.45,17.13,6.34,23.58-.24,6.35-6.48,6.35-16.86,0-23.34v.04Z"/>
  <path class="cls-2" d="M431.12,397.98c-54.01-54-141.57-54-195.58,0-6.45,6.58-6.34,17.13.24,23.58,6.48,6.35,16.86,6.35,23.34,0,40.99-41,107.45-41,148.45-.02l.02.02c6.58,6.45,17.13,6.34,23.58-.24,6.35-6.48,6.35-16.86,0-23.34h-.04Z"/>
  <path class="cls-2" d="M380.93,497.47c0-26.11-21.17-47.28-47.28-47.28s-47.28,21.17-47.28,47.28c0,26.11,21.17,47.28,47.28,47.28s47.28-21.17,47.28-47.28v-.04.04Z"/>
</svg>